<mxfile host="app.diagrams.net" modified="2023-09-13T01:42:57.652Z" agent="Mozilla/5.0 (Windows NT 10.0; Win64; x64) AppleWebKit/537.36 (KHTML, like Gecko) Chrome/115.0.0.0 Safari/537.36 OPR/101.0.0.0" etag="JMyH3RFXd-nPvl0iNOua" version="21.7.4" type="github">
  <diagram name="Page-1" id="2Wiid6yb92A5jVvyZey9">
    <mxGraphModel dx="990" dy="561" grid="1" gridSize="10" guides="1" tooltips="1" connect="1" arrows="1" fold="1" page="1" pageScale="1" pageWidth="850" pageHeight="1100" math="0" shadow="0">
      <root>
        <mxCell id="0" />
        <mxCell id="1" parent="0" />
        <mxCell id="lRDM0rAJAke0uvIUSCbS-1" value="Download road data shapefile (called STREETS_LOAD)" style="rounded=0;whiteSpace=wrap;html=1;" vertex="1" parent="1">
          <mxGeometry x="360" y="40" width="120" height="60" as="geometry" />
        </mxCell>
        <mxCell id="lRDM0rAJAke0uvIUSCbS-2" value="" style="endArrow=classic;html=1;rounded=0;" edge="1" parent="1" target="lRDM0rAJAke0uvIUSCbS-3">
          <mxGeometry width="50" height="50" relative="1" as="geometry">
            <mxPoint x="420" y="110" as="sourcePoint" />
            <mxPoint x="420" y="190" as="targetPoint" />
          </mxGeometry>
        </mxCell>
        <mxCell id="lRDM0rAJAke0uvIUSCbS-4" style="edgeStyle=orthogonalEdgeStyle;rounded=0;orthogonalLoop=1;jettySize=auto;html=1;" edge="1" parent="1" source="lRDM0rAJAke0uvIUSCbS-3" target="lRDM0rAJAke0uvIUSCbS-5">
          <mxGeometry relative="1" as="geometry">
            <mxPoint x="540" y="200" as="targetPoint" />
          </mxGeometry>
        </mxCell>
        <mxCell id="lRDM0rAJAke0uvIUSCbS-3" value="add that shapefile to arcpro via add data button (navigate to the folder where shapefile was saved)" style="ellipse;whiteSpace=wrap;html=1;" vertex="1" parent="1">
          <mxGeometry x="340" y="150" width="140" height="100" as="geometry" />
        </mxCell>
        <mxCell id="lRDM0rAJAke0uvIUSCbS-7" value="" style="edgeStyle=orthogonalEdgeStyle;rounded=0;orthogonalLoop=1;jettySize=auto;html=1;" edge="1" parent="1" source="lRDM0rAJAke0uvIUSCbS-5" target="lRDM0rAJAke0uvIUSCbS-6">
          <mxGeometry relative="1" as="geometry" />
        </mxCell>
        <mxCell id="lRDM0rAJAke0uvIUSCbS-5" value="Open buffer tool in geoprocessing pane" style="rounded=0;whiteSpace=wrap;html=1;" vertex="1" parent="1">
          <mxGeometry x="530" y="170" width="120" height="60" as="geometry" />
        </mxCell>
        <mxCell id="lRDM0rAJAke0uvIUSCbS-9" value="" style="edgeStyle=orthogonalEdgeStyle;rounded=0;orthogonalLoop=1;jettySize=auto;html=1;" edge="1" parent="1" source="lRDM0rAJAke0uvIUSCbS-6" target="lRDM0rAJAke0uvIUSCbS-8">
          <mxGeometry relative="1" as="geometry" />
        </mxCell>
        <mxCell id="lRDM0rAJAke0uvIUSCbS-6" value="put STREETS_LOAD as your input feature class and create output feature class called STREETS_LOAD_Buffer. set the buffer distance at 10 feet." style="ellipse;whiteSpace=wrap;html=1;" vertex="1" parent="1">
          <mxGeometry x="680" y="80" width="170" height="210" as="geometry" />
        </mxCell>
        <mxCell id="lRDM0rAJAke0uvIUSCbS-8" value="run the buffer tool" style="whiteSpace=wrap;html=1;" vertex="1" parent="1">
          <mxGeometry x="705" y="330" width="120" height="60" as="geometry" />
        </mxCell>
      </root>
    </mxGraphModel>
  </diagram>
</mxfile>
